<?xml version="1.0" encoding="UTF-8" standalone="no"?>
<svg
   viewBox="0 0 512 512"
   version="1.1"
   id="svg1"
   sodipodi:docname="circle-rotate.svg"
   inkscape:version="1.4.2 (f4327f4, 2025-05-13)"
   xmlns:inkscape="http://www.inkscape.org/namespaces/inkscape"
   xmlns:sodipodi="http://sodipodi.sourceforge.net/DTD/sodipodi-0.dtd"
   xmlns="http://www.w3.org/2000/svg"
   xmlns:svg="http://www.w3.org/2000/svg">
  <defs
     id="defs1" />
  <sodipodi:namedview
     id="namedview1"
     pagecolor="#ffffff"
     bordercolor="#000000"
     borderopacity="0.25"
     inkscape:showpageshadow="2"
     inkscape:pageopacity="0.0"
     inkscape:pagecheckerboard="0"
     inkscape:deskcolor="#d1d1d1"
     inkscape:zoom="1.6621094"
     inkscape:cx="256"
     inkscape:cy="256"
     inkscape:window-width="1920"
     inkscape:window-height="1111"
     inkscape:window-x="-9"
     inkscape:window-y="-9"
     inkscape:window-maximized="1"
     inkscape:current-layer="svg1" />
  <!--! Font Awesome Free 6.7.2 by @fontawesome - https://fontawesome.com License - https://fontawesome.com/license/free (Icons: CC BY 4.0, Fonts: SIL OFL 1.1, Code: MIT License) Copyright 2024 Fonticons, Inc. -->
  <path
     d="M142.9 142.9c-17.5 17.5-30.1 38-37.8 59.8c-5.9 16.7-24.2 25.4-40.8 19.5s-25.4-24.2-19.5-40.8C55.6 150.7 73.2 122 97.6 97.6c87.2-87.2 228.3-87.5 315.8-1L455 55c6.9-6.9 17.2-8.9 26.2-5.2s14.8 12.5 14.8 22.2l0 128c0 13.3-10.7 24-24 24l-8.4 0c0 0 0 0 0 0L344 224c-9.7 0-18.5-5.8-22.2-14.8s-1.7-19.3 5.2-26.2l41.1-41.1c-62.6-61.5-163.1-61.2-225.3 1zM16 312c0-13.3 10.7-24 24-24l7.6 0 .7 0L168 288c9.7 0 18.5 5.8 22.2 14.8s1.7 19.3-5.2 26.2l-41.1 41.1c62.6 61.5 163.1 61.2 225.3-1c17.5-17.5 30.1-38 37.8-59.8c5.9-16.7 24.2-25.4 40.8-19.5s25.4 24.2 19.5 40.8c-10.8 30.6-28.4 59.3-52.9 83.8c-87.2 87.2-228.3 87.5-315.8 1L57 457c-6.9 6.9-17.2 8.9-26.2 5.2S16 449.7 16 440l0-119.6 0-.7 0-7.6z"
     id="path1"
     style="fill:#ffffff" />
</svg>
