<?xml version="1.0" encoding="UTF-8" standalone="no"?>
<svg
   viewBox="0 0 576 512"
   version="1.1"
   id="svg1"
   sodipodi:docname="house.svg"
   inkscape:version="1.4.2 (f4327f4, 2025-05-13)"
   xmlns:inkscape="http://www.inkscape.org/namespaces/inkscape"
   xmlns:sodipodi="http://sodipodi.sourceforge.net/DTD/sodipodi-0.dtd"
   xmlns="http://www.w3.org/2000/svg"
   xmlns:svg="http://www.w3.org/2000/svg">
  <defs
     id="defs1" />
  <sodipodi:namedview
     id="namedview1"
     pagecolor="#ffffff"
     bordercolor="#000000"
     borderopacity="0.25"
     inkscape:showpageshadow="2"
     inkscape:pageopacity="0.0"
     inkscape:pagecheckerboard="0"
     inkscape:deskcolor="#d1d1d1"
     inkscape:zoom="1.6621094"
     inkscape:cx="287.88719"
     inkscape:cy="256"
     inkscape:window-width="1920"
     inkscape:window-height="1111"
     inkscape:window-x="-9"
     inkscape:window-y="-9"
     inkscape:window-maximized="1"
     inkscape:current-layer="svg1" />
  <!--! Font Awesome Free 6.7.2 by @fontawesome - https://fontawesome.com License - https://fontawesome.com/license/free (Icons: CC BY 4.0, Fonts: SIL OFL 1.1, Code: MIT License) Copyright 2024 Fonticons, Inc. -->
  <path
     d="M543.8 287.6c17 0 32-14 32-32.1c1-9-3-17-11-24L512 185l0-121c0-17.7-14.3-32-32-32l-32 0c-17.7 0-32 14.3-32 32l0 36.7L309.5 7c-6-5-14-7-21-7s-15 1-22 8L10 231.5c-7 7-10 15-10 24c0 18 14 32.1 32 32.1l32 0 0 69.7c-.1 .9-.1 1.8-.1 2.8l0 112c0 22.1 17.9 40 40 40l16 0c1.2 0 2.4-.1 3.6-.2c1.5 .1 3 .2 4.5 .2l31.9 0 24 0c22.1 0 40-17.9 40-40l0-24 0-64c0-17.7 14.3-32 32-32l64 0c17.7 0 32 14.3 32 32l0 64 0 24c0 22.1 17.9 40 40 40l24 0 32.5 0c1.4 0 2.8 0 4.2-.1c1.1 .1 2.2 .1 3.3 .1l16 0c22.1 0 40-17.9 40-40l0-16.2c.3-2.6 .5-5.3 .5-8.1l-.7-160.2 32 0z"
     id="path1"
     style="fill:#ffffff" />
</svg>
