<?xml version="1.0" encoding="UTF-8" standalone="no"?>
<svg
   viewBox="0 0 512 512"
   version="1.1"
   id="svg1"
   sodipodi:docname="bug.svg"
   inkscape:version="1.3 (0e150ed6c4, 2023-07-21)"
   xmlns:inkscape="http://www.inkscape.org/namespaces/inkscape"
   xmlns:sodipodi="http://sodipodi.sourceforge.net/DTD/sodipodi-0.dtd"
   xmlns="http://www.w3.org/2000/svg"
   xmlns:svg="http://www.w3.org/2000/svg">
  <defs
     id="defs1" />
  <sodipodi:namedview
     id="namedview1"
     pagecolor="#ffffff"
     bordercolor="#000000"
     borderopacity="0.25"
     inkscape:showpageshadow="2"
     inkscape:pageopacity="0.0"
     inkscape:pagecheckerboard="0"
     inkscape:deskcolor="#d1d1d1"
     showgrid="false"
     inkscape:zoom="1.1228082"
     inkscape:cx="209.74196"
     inkscape:cy="255.16379"
     inkscape:window-width="1920"
     inkscape:window-height="1009"
     inkscape:window-x="-8"
     inkscape:window-y="-8"
     inkscape:window-maximized="1"
     inkscape:current-layer="svg1" />
  <!--! Font Awesome Free 6.7.2 by @fontawesome - https://fontawesome.com License - https://fontawesome.com/license/free (Icons: CC BY 4.0, Fonts: SIL OFL 1.1, Code: MIT License) Copyright 2024 Fonticons, Inc. -->
  <path
     d="m 41.4,105.4 c 12.5,-12.5 32.8,-12.5 45.3,0 l 64,64 c 0.7,0.7 1.3,1.4 1.9,2.1 14.2,-7.3 30.4,-11.4 47.5,-11.4 h 112 c 17.1,0 33.2,4.1 47.5,11.4 0.6,-0.7 1.2,-1.4 1.9,-2.1 l 64,-64 c 12.5,-12.5 32.8,-12.5 45.3,0 12.5,12.5 12.5,32.8 0,45.3 l -64,64 c -0.7,0.7 -1.4,1.3 -2.1,1.9 6.2,12 10.1,25.3 11.1,39.5 h 64.3 c 17.7,0 32,14.3 32,32 0,17.7 -14.3,32 -32,32 h -64 c 0,24.6 -5.5,47.8 -15.4,68.6 2.2,1.3 4.2,2.9 6,4.8 l 64,64 c 12.5,12.5 12.5,32.8 0,45.3 -12.5,12.5 -32.8,12.5 -45.3,0 l -63.1,-63.1 c -24.5,21.8 -55.8,36.2 -90.3,39.6 V 240 c 0,-8.8 -7.2,-16 -16,-16 -8.8,0 -16,7.2 -16,16 v 239.2 c -34.5,-3.4 -65.8,-17.8 -90.3,-39.6 l -63.1,63 c -12.5,12.5 -32.8,12.5 -45.3,0 -12.5,-12.5 -12.5,-32.8 0,-45.3 l 64,-64 c 1.9,-1.9 3.9,-3.4 6,-4.8 C 101.5,367.8 96,344.6 96,320 H 32 C 14.3,320 0,305.7 0,288 0,270.3 14.3,256 32,256 h 64.3 c 1.1,-14.1 5,-27.5 11.1,-39.5 -0.7,-0.6 -1.4,-1.2 -2.1,-1.9 l -64,-64 c -12.5,-12.5 -12.5,-32.8 0,-45.3 z"
     id="path2"
     style="fill:#ff2a2a" />
  <path
     d="m 256,0 c 53,0 96,43 96,96 v 3.6 c 0,15.7 -12.7,28.4 -28.4,28.4 H 188.5 c -15.7,0 -28.4,-12.7 -28.4,-28.4 V 96 c 0,-53 43,-96 96,-96 z"
     id="path1" />
</svg>
