<?xml version="1.0" encoding="UTF-8" standalone="no"?>
<svg
   viewBox="0 0 512 512"
   version="1.1"
   id="svg1"
   sodipodi:docname="busstop.svg"
   xml:space="preserve"
   inkscape:version="1.4.2 (f4327f4, 2025-05-13)"
   xmlns:inkscape="http://www.inkscape.org/namespaces/inkscape"
   xmlns:sodipodi="http://sodipodi.sourceforge.net/DTD/sodipodi-0.dtd"
   xmlns="http://www.w3.org/2000/svg"
   xmlns:svg="http://www.w3.org/2000/svg"><defs
     id="defs1" /><sodipodi:namedview
     id="namedview1"
     pagecolor="#ffffff"
     bordercolor="#000000"
     borderopacity="0.25"
     inkscape:showpageshadow="2"
     inkscape:pageopacity="0.0"
     inkscape:pagecheckerboard="0"
     inkscape:deskcolor="#d1d1d1"
     inkscape:zoom="0.41552734"
     inkscape:cx="111.90599"
     inkscape:cy="292.39953"
     inkscape:window-width="1920"
     inkscape:window-height="1111"
     inkscape:window-x="-9"
     inkscape:window-y="-9"
     inkscape:window-maximized="1"
     inkscape:current-layer="svg1" /><!--! Font Awesome Free 6.7.2 by @fontawesome - https://fontawesome.com License - https://fontawesome.com/license/free (Icons: CC BY 4.0, Fonts: SIL OFL 1.1, Code: MIT License) Copyright 2024 Fonticons, Inc. --><path
     d="M256 512A256 256 0 1 0 256 0a256 256 0 1 0 0 512z"
     id="path1"
     style="fill:#338000" /><path
     d="m 256,453.03878 a 197.03878,197.03878 0 1 0 0,-394.077559 197.03878,197.03878 0 1 0 0,394.077559 z"
     id="path2"
     style="fill:#ffcc00;stroke-width:0.769682" /><path
     d="m 331.78217,256.0141 v 115.24727 c 0,10.62436 8.58352,19.20789 19.20787,19.20789 10.62437,0 19.20788,-8.58353 19.20788,-19.20789 V 236.80622 140.76683 c 0,-10.62436 -8.58351,-19.20788 -19.20788,-19.20788 -10.62435,0 -19.20787,8.58352 -19.20787,19.20788 v 76.83152 H 178.11913 v -76.83152 c 0,-10.62436 -8.58352,-19.20788 -19.20787,-19.20788 -10.62437,0 -19.20788,8.58352 -19.20788,19.20788 v 230.49454 c 0,10.62436 8.58351,19.20789 19.20788,19.20789 10.62435,0 19.20787,-8.58353 19.20787,-19.20789 V 256.0141 Z"
     id="path1-8"
     style="fill:#338000;stroke-width:0.600247" /></svg>
