<?xml version="1.0" encoding="UTF-8" standalone="no"?>
<svg
   viewBox="0 0 512 512"
   version="1.1"
   id="svg1"
   sodipodi:docname="download.svg"
   inkscape:version="1.3 (0e150ed6c4, 2023-07-21)"
   xmlns:inkscape="http://www.inkscape.org/namespaces/inkscape"
   xmlns:sodipodi="http://sodipodi.sourceforge.net/DTD/sodipodi-0.dtd"
   xmlns="http://www.w3.org/2000/svg"
   xmlns:svg="http://www.w3.org/2000/svg">
  <defs
     id="defs1" />
  <sodipodi:namedview
     id="namedview1"
     pagecolor="#ffffff"
     bordercolor="#000000"
     borderopacity="0.25"
     inkscape:showpageshadow="2"
     inkscape:pageopacity="0.0"
     inkscape:pagecheckerboard="0"
     inkscape:deskcolor="#d1d1d1"
     showgrid="false"
     inkscape:zoom="1.1228082"
     inkscape:cx="251.60129"
     inkscape:cy="280.10126"
     inkscape:window-width="1920"
     inkscape:window-height="1009"
     inkscape:window-x="-8"
     inkscape:window-y="-8"
     inkscape:window-maximized="1"
     inkscape:current-layer="svg1" />
  <!--! Font Awesome Free 6.7.2 by @fontawesome - https://fontawesome.com License - https://fontawesome.com/license/free (Icons: CC BY 4.0, Fonts: SIL OFL 1.1, Code: MIT License) Copyright 2024 Fonticons, Inc. -->
  <path
     d="m 432,408 a 24,24 0 1 1 0,48 24,24 0 1 1 0,-48 z"
     id="path3" />
  <path
     d="M 64,352 C 28.7,352 0,380.7 0,416 v 32 c 0,35.3 28.7,64 64,64 h 384 c 35.3,0 64,-28.7 64,-64 v -32 c 0,-35.3 -28.7,-64 -64,-64 H 346.5 l -45.3,45.3 c -25,25 -65.5,25 -90.5,0 L 165.5,352 Z"
     id="path2"
     style="fill:#00aa88" />
  <path
     d="M 288,32 C 288,14.3 273.7,0 256,0 238.3,0 224,14.3 224,32 v 242.7 l -73.4,-73.4 c -12.5,-12.5 -32.8,-12.5 -45.3,0 -12.5,12.5 -12.5,32.8 0,45.3 l 128,128 c 12.5,12.5 32.8,12.5 45.3,0 l 128,-128 c 12.5,-12.5 12.5,-32.8 0,-45.3 -12.5,-12.5 -32.8,-12.5 -45.3,0 L 288,274.7 Z"
     id="path1"
     style="fill:#0066ff" />
</svg>
