<?xml version="1.0" encoding="UTF-8" standalone="no"?>
<svg
   viewBox="0 0 576 512"
   version="1.1"
   id="svg1"
   sodipodi:docname="file-close.svg"
   inkscape:version="1.3 (0e150ed6c4, 2023-07-21)"
   xmlns:inkscape="http://www.inkscape.org/namespaces/inkscape"
   xmlns:sodipodi="http://sodipodi.sourceforge.net/DTD/sodipodi-0.dtd"
   xmlns="http://www.w3.org/2000/svg"
   xmlns:svg="http://www.w3.org/2000/svg">
  <defs
     id="defs1" />
  <sodipodi:namedview
     id="namedview1"
     pagecolor="#ffffff"
     bordercolor="#000000"
     borderopacity="0.25"
     inkscape:showpageshadow="2"
     inkscape:pageopacity="0.0"
     inkscape:pagecheckerboard="0"
     inkscape:deskcolor="#d1d1d1"
     showgrid="false"
     inkscape:zoom="1.1228082"
     inkscape:cx="233.78882"
     inkscape:cy="223.99195"
     inkscape:window-width="1920"
     inkscape:window-height="1009"
     inkscape:window-x="-8"
     inkscape:window-y="-8"
     inkscape:window-maximized="1"
     inkscape:current-layer="svg1" />
  <!--! Font Awesome Free 6.7.2 by @fontawesome - https://fontawesome.com License - https://fontawesome.com/license/free (Icons: CC BY 4.0, Fonts: SIL OFL 1.1, Code: MIT License) Copyright 2024 Fonticons, Inc. -->
  <path
     d="m 432,224 a 144,144 0 1 1 0,288 144,144 0 1 1 0,-288 z"
     id="path3"
     style="fill:#d40000" />
  <path
     d="M 384,128 H 256 V 0 Z"
     id="path2"
     style="fill:#999999" />
  <path
     d="M 0,64 C 0,28.7 28.7,0 64,0 h 160 v 128 c 0,17.7 14.3,32 32,32 h 128 v 38.6 c -73.9,20.9 -128,88.8 -128,169.4 0,59.1 29.1,111.3 73.7,143.3 -3.2,0.5 -6.4,0.7 -9.7,0.7 H 64 C 28.7,512 0,483.3 0,448 Z"
     id="path1"
     style="fill:#cccccc" />
  <path
     d="m 491.3,331.3 c 6.2,-6.2 6.2,-16.4 0,-22.6 -6.2,-6.2 -16.4,-6.2 -22.6,0 L 432,345.4 395.3,308.7 c -6.2,-6.2 -16.4,-6.2 -22.6,0 -6.2,6.2 -6.2,16.4 0,22.6 l 36.7,36.7 -36.7,36.7 c -6.2,6.2 -6.2,16.4 0,22.6 6.2,6.2 16.4,6.2 22.6,0 l 36.7,-36.7 36.7,36.7 c 6.2,6.2 16.4,6.2 22.6,0 6.2,-6.2 6.2,-16.4 0,-22.6 L 454.6,368 Z"
     id="path4"
     style="fill:#ffffff" />
</svg>
