<?xml version="1.0" encoding="UTF-8" standalone="no"?>
<svg
   viewBox="0 0 512 512"
   version="1.1"
   id="svg1"
   sodipodi:docname="file-import.svg"
   inkscape:version="1.3 (0e150ed6c4, 2023-07-21)"
   xmlns:inkscape="http://www.inkscape.org/namespaces/inkscape"
   xmlns:sodipodi="http://sodipodi.sourceforge.net/DTD/sodipodi-0.dtd"
   xmlns="http://www.w3.org/2000/svg"
   xmlns:svg="http://www.w3.org/2000/svg">
  <defs
     id="defs1" />
  <sodipodi:namedview
     id="namedview1"
     pagecolor="#ffffff"
     bordercolor="#000000"
     borderopacity="0.25"
     inkscape:showpageshadow="2"
     inkscape:pageopacity="0.0"
     inkscape:pagecheckerboard="0"
     inkscape:deskcolor="#d1d1d1"
     showgrid="false"
     inkscape:zoom="0.79394531"
     inkscape:cx="64.865929"
     inkscape:cy="115.24723"
     inkscape:window-width="1920"
     inkscape:window-height="1009"
     inkscape:window-x="-8"
     inkscape:window-y="-8"
     inkscape:window-maximized="1"
     inkscape:current-layer="svg1" />
  <!--! Font Awesome Free 6.7.2 by @fontawesome - https://fontawesome.com License - https://fontawesome.com/license/free (Icons: CC BY 4.0, Fonts: SIL OFL 1.1, Code: MIT License) Copyright 2024 Fonticons, Inc. -->
  <path
     d="M 512,128 H 384 V 0 Z"
     id="path3"
     style="fill:#999999" />
  <path
     d="m 128,288 v 48 H 24 C 10.7,336 0,325.3 0,312 0,298.7 10.7,288 24,288 Z"
     id="path2"
     style="fill:#008000" />
  <path
     d="M 128,64 C 128,28.7 156.7,0 192,0 h 160 v 128 c 0,17.7 14.3,32 32,32 h 128 v 288 c 0,35.3 -28.7,64 -64,64 H 192 c -35.3,0 -64,-28.7 -64,-64 V 336 h 174.1 l -39,39 c -9.4,9.4 -9.4,24.6 0,33.9 9.4,9.3 24.6,9.4 33.9,0 l 80,-80 c 9.4,-9.4 9.4,-24.6 0,-33.9 l -80,-80 c -9.4,-9.4 -24.6,-9.4 -33.9,0 -9.3,9.4 -9.4,24.6 0,33.9 l 39,39 L 128,288 Z"
     id="path1"
     style="fill:#cccccc" />
</svg>
