<?xml version="1.0" encoding="UTF-8" standalone="no"?>
<svg
   viewBox="0 0 384 512"
   version="1.1"
   id="svg1"
   sodipodi:docname="files-stack.svg"
   inkscape:version="1.3 (0e150ed6c4, 2023-07-21)"
   xmlns:inkscape="http://www.inkscape.org/namespaces/inkscape"
   xmlns:sodipodi="http://sodipodi.sourceforge.net/DTD/sodipodi-0.dtd"
   xmlns="http://www.w3.org/2000/svg"
   xmlns:svg="http://www.w3.org/2000/svg">
  <defs
     id="defs1" />
  <sodipodi:namedview
     id="namedview1"
     pagecolor="#ffffff"
     bordercolor="#000000"
     borderopacity="0.25"
     inkscape:showpageshadow="2"
     inkscape:pageopacity="0.0"
     inkscape:pagecheckerboard="0"
     inkscape:deskcolor="#d1d1d1"
     showgrid="false"
     inkscape:zoom="1.1228082"
     inkscape:cx="203.50759"
     inkscape:cy="296.13249"
     inkscape:window-width="1920"
     inkscape:window-height="1009"
     inkscape:window-x="-8"
     inkscape:window-y="-8"
     inkscape:window-maximized="1"
     inkscape:current-layer="svg1" />
  <!--! Font Awesome Free 6.7.2 by @fontawesome - https://fontawesome.com License - https://fontawesome.com/license/free (Icons: CC BY 4.0, Fonts: SIL OFL 1.1, Code: MIT License) Copyright 2024 Fonticons, Inc. -->
  <path
     d="m 384,416 v -64 h -64 v 64 z"
     id="path8"
     style="fill:#5599ff" />
  <path
     d="m 320,448 v 64 c 35.3,0 64,-28.7 64,-64 z"
     id="path7"
     style="fill:#0066ff" />
  <path
     d="M 64,448 H 0 c 0,35.3 28.7,64 64,64 z"
     id="path6"
     style="fill:#0066ff" />
  <path
     d="M 176,448 H 96 v 64 h 80 z"
     id="path5"
     style="fill:#0044aa" />
  <path
     d="m 288,448 h -80 v 64 h 80 z"
     id="path4"
     style="fill:#0044aa" />
  <path
     d="M 0,416 H 64 V 352 H 0 Z"
     id="path3"
     style="fill:#5599ff" />
  <path
     d="M 256,0 V 128 H 384 Z"
     id="path2"
     style="fill:#999999" />
  <path
     d="M 64,0 C 28.7,0 0,28.7 0,64 V 320 H 384 V 160 H 256 c -17.7,0 -32,-14.3 -32,-32 V 0 Z"
     id="path1"
     style="fill:#cccccc" />
</svg>
