<?xml version="1.0" encoding="UTF-8" standalone="no"?>
<svg
   viewBox="0 0 576 512"
   version="1.1"
   id="svg1"
   sodipodi:docname="file-circle-info.svg"
   inkscape:version="1.3 (0e150ed6c4, 2023-07-21)"
   xmlns:inkscape="http://www.inkscape.org/namespaces/inkscape"
   xmlns:sodipodi="http://sodipodi.sourceforge.net/DTD/sodipodi-0.dtd"
   xmlns="http://www.w3.org/2000/svg"
   xmlns:svg="http://www.w3.org/2000/svg">
  <defs
     id="defs1" />
  <sodipodi:namedview
     id="namedview1"
     pagecolor="#ffffff"
     bordercolor="#000000"
     borderopacity="0.25"
     inkscape:showpageshadow="2"
     inkscape:pageopacity="0.0"
     inkscape:pagecheckerboard="0"
     inkscape:deskcolor="#d1d1d1"
     showgrid="false"
     inkscape:zoom="1.1228082"
     inkscape:cx="264.96065"
     inkscape:cy="256.05441"
     inkscape:window-width="1920"
     inkscape:window-height="1009"
     inkscape:window-x="-8"
     inkscape:window-y="-8"
     inkscape:window-maximized="1"
     inkscape:current-layer="svg1" />
  <path
     d="m 432,224 a 144,144 0 1 1 0,288 144,144 0 1 1 0,-288 z"
     id="path11"
     style="fill:#0066ff" />
  <!--! Font Awesome Free 6.7.2 by @fontawesome - https://fontawesome.com License - https://fontawesome.com/license/free (Icons: CC BY 4.0, Fonts: SIL OFL 1.1, Code: MIT License) Copyright 2024 Fonticons, Inc. -->
  <path
     d="M 384,128 H 256 V 0 Z"
     id="path10"
     style="fill:#999999" />
  <path
     d="m 368,321.6 v 6.4 c 0,8.8 7.2,16 16,16 8.8,0 16,-7.2 16,-16 v -6.4 c 0,-5.3 4.3,-9.6 9.6,-9.6 h 40.5 c 7.7,0 13.9,6.2 13.9,13.9 0,5.2 -2.9,9.9 -7.4,12.3 l -32,16.8 c -5.3,2.8 -8.6,8.2 -8.6,14.2 V 384 c 0,8.8 7.2,16 16,16 8.8,0 16,-7.2 16,-16 v -5.1 l 23.5,-12.3 C 486.6,358.7 496,343 496,326 c 0,-25.4 -20.6,-45.9 -45.9,-45.9 h -40.5 c -23,0 -41.6,18.6 -41.6,41.6 z"
     id="path13"
     style="fill:#ffffff" />
  <path
     d="m 432,464 a 24,24 0 1 0 0,-48 24,24 0 1 0 0,48 z"
     id="path12"
     style="fill:#ffffff" />
  <path
     d="M 0,64 C 0,28.7 28.7,0 64,0 h 160 v 128 c 0,17.7 14.3,32 32,32 h 128 v 38.6 c -73.9,20.9 -128,88.8 -128,169.4 0,59.1 29.1,111.3 73.7,143.3 -3.2,0.5 -6.4,0.7 -9.7,0.7 H 64 C 28.7,512 0,483.3 0,448 Z"
     id="path1"
     style="fill:#cccccc" />
</svg>
