<?xml version="1.0" encoding="UTF-8" standalone="no"?>
<svg
   viewBox="0 0 576 512"
   version="1.1"
   id="svg1"
   sodipodi:docname="folder-open.svg"
   inkscape:version="1.3 (0e150ed6c4, 2023-07-21)"
   xmlns:inkscape="http://www.inkscape.org/namespaces/inkscape"
   xmlns:sodipodi="http://sodipodi.sourceforge.net/DTD/sodipodi-0.dtd"
   xmlns="http://www.w3.org/2000/svg"
   xmlns:svg="http://www.w3.org/2000/svg">
  <defs
     id="defs1" />
  <sodipodi:namedview
     id="namedview1"
     pagecolor="#ffffff"
     bordercolor="#000000"
     borderopacity="0.25"
     inkscape:showpageshadow="2"
     inkscape:pageopacity="0.0"
     inkscape:pagecheckerboard="0"
     inkscape:deskcolor="#d1d1d1"
     showgrid="false"
     inkscape:zoom="0.79394531"
     inkscape:cx="228.60517"
     inkscape:cy="231.12423"
     inkscape:window-width="1920"
     inkscape:window-height="1009"
     inkscape:window-x="-8"
     inkscape:window-y="-8"
     inkscape:window-maximized="1"
     inkscape:current-layer="svg1" />
  <!--! Font Awesome Free 6.7.2 by @fontawesome - https://fontawesome.com License - https://fontawesome.com/license/free (Icons: CC BY 4.0, Fonts: SIL OFL 1.1, Code: MIT License) Copyright 2024 Fonticons, Inc. -->
  <path
     d="M 116.3,239.9 C 122.1,230 132.6,224 144,224 h 400 c 11.5,0 22,6.1 27.7,16.1 5.7,10 5.7,22.2 -0.1,32.1 l -112,192 C 453.9,474 443.4,480 432,480 H 32 c -11.5,0 -22,-6.1 -27.7,-16.1 -5.7,-10 -5.7,-22.2 0.1,-32.1 l 112,-192 z"
     id="path2"
     style="fill:#ffd42a" />
  <path
     d="M 88.7,223.8 0,375.8 V 96 C 0,60.7 28.7,32 64,32 h 117.5 c 17,0 33.3,6.7 45.3,18.7 l 26.5,26.5 c 12,12 28.3,18.7 45.3,18.7 L 416,96 c 35.3,0 64,28.7 64,64 v 32 H 144 c -22.8,0 -43.8,12.1 -55.3,31.8 z"
     id="path1"
     style="fill:#d4aa00" />
</svg>
