<?xml version="1.0" encoding="UTF-8" standalone="no"?>
<svg
   viewBox="0 0 576 512"
   version="1.1"
   id="svg1"
   sodipodi:docname="layer-group.svg"
   inkscape:version="1.3 (0e150ed6c4, 2023-07-21)"
   xmlns:inkscape="http://www.inkscape.org/namespaces/inkscape"
   xmlns:sodipodi="http://sodipodi.sourceforge.net/DTD/sodipodi-0.dtd"
   xmlns="http://www.w3.org/2000/svg"
   xmlns:svg="http://www.w3.org/2000/svg">
  <defs
     id="defs1" />
  <sodipodi:namedview
     id="namedview1"
     pagecolor="#ffffff"
     bordercolor="#000000"
     borderopacity="0.25"
     inkscape:showpageshadow="2"
     inkscape:pageopacity="0.0"
     inkscape:pagecheckerboard="0"
     inkscape:deskcolor="#d1d1d1"
     showgrid="false"
     inkscape:zoom="0.79394531"
     inkscape:cx="216.00984"
     inkscape:cy="168.1476"
     inkscape:window-width="1920"
     inkscape:window-height="1009"
     inkscape:window-x="-8"
     inkscape:window-y="-8"
     inkscape:window-maximized="1"
     inkscape:current-layer="svg1" />
  <!--! Font Awesome Free 6.7.2 by @fontawesome - https://fontawesome.com License - https://fontawesome.com/license/free (Icons: CC BY 4.0, Fonts: SIL OFL 1.1, Code: MIT License) Copyright 2024 Fonticons, Inc. -->
  <path
     d="m 324.9,407.8 152,-70.2 53.2,24.6 c 8.5,3.9 13.9,12.4 13.9,21.8 0,9.4 -5.4,17.9 -13.9,21.8 l -218.6,101 c -14.9,6.9 -32.1,6.9 -47,0 L 45.9,405.8 C 37.4,401.8 32,393.3 32,384 c 0,-9.3 5.4,-17.9 13.9,-21.8 l 53.2,-24.6 152,70.2 c 23.4,10.8 50.4,10.8 73.8,0 z"
     id="path3"
     style="fill:#0055d4" />
  <path
     d="m 476.9,209.6 53.2,24.6 c 8.5,3.9 13.9,12.4 13.9,21.8 0,9.4 -5.4,17.9 -13.9,21.8 l -218.6,101 c -14.9,6.9 -32.1,6.9 -47,0 L 45.9,277.8 C 37.4,273.8 32,265.3 32,256 c 0,-9.3 5.4,-17.9 13.9,-21.8 l 53.2,-24.6 152,70.2 c 23.4,10.8 50.4,10.8 73.8,0 z"
     id="path2"
     style="fill:#2a7fff" />
  <path
     d="m 264.5,5.2 c 14.9,-6.9 32.1,-6.9 47,0 l 218.6,101 c 8.5,3.9 13.9,12.4 13.9,21.8 0,9.4 -5.4,17.9 -13.9,21.8 l -218.6,101 c -14.9,6.9 -32.1,6.9 -47,0 L 45.9,149.8 C 37.4,145.8 32,137.3 32,128 c 0,-9.3 5.4,-17.9 13.9,-21.8 z"
     id="path1"
     style="fill:#80b3ff" />
</svg>
