<?xml version="1.0" encoding="UTF-8" standalone="no"?>
<svg
   viewBox="0 0 512 512"
   version="1.1"
   id="svg1"
   xmlns="http://www.w3.org/2000/svg"
   xmlns:svg="http://www.w3.org/2000/svg">
  <defs
     id="defs1">
    <clipPath
       clipPathUnits="userSpaceOnUse"
       id="clipPath5">
      <rect
         style="fill:#000000;stroke-width:0.372151;stroke-linejoin:round"
         id="rect6"
         width="481.82761"
         height="643.03058"
         x="95.296776"
         y="-44.5312" />
    </clipPath>
  </defs>
  <rect
     style="fill:#000000;stroke-width:0.377953;stroke-linejoin:round"
     id="rect1"
     width="323.0701"
     height="180.74292"
     x="139.80812"
     y="261.98279" />
  <rect
     style="fill:#000000;stroke-width:0.377953;stroke-linejoin:round"
     id="rect2"
     width="108.94957"
     height="161.22017"
     x="358.33704"
     y="79.350555" />
  <rect
     style="fill:#0066ff;stroke-width:0.377953;stroke-linejoin:round"
     id="rect3"
     width="197.11685"
     height="156.18204"
     x="136.02953"
     y="78.091019" />
  <!--! Font Awesome Free 6.7.2 by @fontawesome - https://fontawesome.com License - https://fontawesome.com/license/free (Icons: CC BY 4.0, Fonts: SIL OFL 1.1, Code: MIT License) Copyright 2024 Fonticons, Inc. -->
  <path
     d="M96 96c0-35.3 28.7-64 64-64l288 0c35.3 0 64 28.7 64 64l0 320c0 35.3-28.7 64-64 64L80 480c-44.2 0-80-35.8-80-80L0 128c0-17.7 14.3-32 32-32s32 14.3 32 32l0 272c0 8.8 7.2 16 16 16s16-7.2 16-16L96 96zm64 24l0 80c0 13.3 10.7 24 24 24l112 0c13.3 0 24-10.7 24-24l0-80c0-13.3-10.7-24-24-24L184 96c-13.3 0-24 10.7-24 24zm208-8c0 8.8 7.2 16 16 16l48 0c8.8 0 16-7.2 16-16s-7.2-16-16-16l-48 0c-8.8 0-16 7.2-16 16zm0 96c0 8.8 7.2 16 16 16l48 0c8.8 0 16-7.2 16-16s-7.2-16-16-16l-48 0c-8.8 0-16 7.2-16 16zM160 304c0 8.8 7.2 16 16 16l256 0c8.8 0 16-7.2 16-16s-7.2-16-16-16l-256 0c-8.8 0-16 7.2-16 16zm0 96c0 8.8 7.2 16 16 16l256 0c8.8 0 16-7.2 16-16s-7.2-16-16-16l-256 0c-8.8 0-16 7.2-16 16z"
     id="path1"
     style="fill:#999999" />
  <path
     d="M96 96c0-35.3 28.7-64 64-64l288 0c35.3 0 64 28.7 64 64l0 320c0 35.3-28.7 64-64 64L80 480c-44.2 0-80-35.8-80-80L0 128c0-17.7 14.3-32 32-32s32 14.3 32 32l0 272c0 8.8 7.2 16 16 16s16-7.2 16-16L96 96zm64 24l0 80c0 13.3 10.7 24 24 24l112 0c13.3 0 24-10.7 24-24l0-80c0-13.3-10.7-24-24-24L184 96c-13.3 0-24 10.7-24 24zm208-8c0 8.8 7.2 16 16 16l48 0c8.8 0 16-7.2 16-16s-7.2-16-16-16l-48 0c-8.8 0-16 7.2-16 16zm0 96c0 8.8 7.2 16 16 16l48 0c8.8 0 16-7.2 16-16s-7.2-16-16-16l-48 0c-8.8 0-16 7.2-16 16zM160 304c0 8.8 7.2 16 16 16l256 0c8.8 0 16-7.2 16-16s-7.2-16-16-16l-256 0c-8.8 0-16 7.2-16 16zm0 96c0 8.8 7.2 16 16 16l256 0c8.8 0 16-7.2 16-16s-7.2-16-16-16l-256 0c-8.8 0-16 7.2-16 16z"
     id="path3"
     style="fill:#cccccc"
     clip-path="url(#clipPath5)" />
</svg>
