<?xml version="1.0" encoding="UTF-8" standalone="no"?>
<svg
   viewBox="0 0 512 512"
   version="1.1"
   id="svg1"
   sodipodi:docname="reverse.svg"
   inkscape:version="1.3 (0e150ed6c4, 2023-07-21)"
   xmlns:inkscape="http://www.inkscape.org/namespaces/inkscape"
   xmlns:sodipodi="http://sodipodi.sourceforge.net/DTD/sodipodi-0.dtd"
   xmlns="http://www.w3.org/2000/svg"
   xmlns:svg="http://www.w3.org/2000/svg">
  <defs
     id="defs1" />
  <sodipodi:namedview
     id="namedview1"
     pagecolor="#ffffff"
     bordercolor="#000000"
     borderopacity="0.25"
     inkscape:showpageshadow="2"
     inkscape:pageopacity="0.0"
     inkscape:pagecheckerboard="0"
     inkscape:deskcolor="#d1d1d1"
     showgrid="false"
     inkscape:zoom="0.56140411"
     inkscape:cx="-43.640578"
     inkscape:cy="47.203074"
     inkscape:window-width="1920"
     inkscape:window-height="1009"
     inkscape:window-x="-8"
     inkscape:window-y="-8"
     inkscape:window-maximized="1"
     inkscape:current-layer="svg1" />
  <!--! Font Awesome Free 6.7.2 by @fontawesome - https://fontawesome.com License - https://fontawesome.com/license/free (Icons: CC BY 4.0, Fonts: SIL OFL 1.1, Code: MIT License) Copyright 2024 Fonticons, Inc. -->
  <path
     style="fill:#0055d4"
     d="m 512,288 c 0,-17.7 -14.3,-32 -32,-32 -17.7,0 -32,14.3 -32,32 0,53 -43,96 -96,96 H 192 v -32 c 0,-12.9 -7.8,-24.6 -19.8,-29.6 -12,-5 -25.7,-2.2 -34.9,6.9 l -64,64 c -12.5,12.5 -12.5,32.8 0,45.3 l 64,64 c 9.2,9.2 22.9,11.9 34.9,6.9 12,-5 19.8,-16.6 19.8,-29.6 v -32 h 160 c 88.4,0 160,-71.6 160,-160 z"
     id="path2" />
  <path
     style="fill:#5599ff"
     d="m 0,224 c 0,17.7 14.3,32 32,32 17.7,0 32,-14.3 32,-32 0,-53 43,-96 96,-96 h 160 v 32 c 0,12.9 7.8,24.6 19.8,29.6 12,5 25.7,2.2 34.9,-6.9 l 64,-64 c 12.5,-12.5 12.5,-32.8 0,-45.3 l -64,-64 C 365.5,0.2 351.8,-2.5 339.8,2.5 327.8,7.5 320,19.1 320,32 V 64 H 160 C 71.6,64 0,135.6 0,224 Z"
     id="path1" />
</svg>
