<?xml version="1.0" encoding="UTF-8" standalone="no"?>
<svg
   viewBox="0 0 512 512"
   version="1.1"
   id="svg1"
   sodipodi:docname="rotate.svg"
   inkscape:version="1.3 (0e150ed6c4, 2023-07-21)"
   xmlns:inkscape="http://www.inkscape.org/namespaces/inkscape"
   xmlns:sodipodi="http://sodipodi.sourceforge.net/DTD/sodipodi-0.dtd"
   xmlns="http://www.w3.org/2000/svg"
   xmlns:svg="http://www.w3.org/2000/svg">
  <defs
     id="defs1" />
  <sodipodi:namedview
     id="namedview1"
     pagecolor="#ffffff"
     bordercolor="#000000"
     borderopacity="0.25"
     inkscape:showpageshadow="2"
     inkscape:pageopacity="0.0"
     inkscape:pagecheckerboard="0"
     inkscape:deskcolor="#d1d1d1"
     showgrid="false"
     inkscape:zoom="1.5878906"
     inkscape:cx="256"
     inkscape:cy="256"
     inkscape:window-width="1920"
     inkscape:window-height="1009"
     inkscape:window-x="-8"
     inkscape:window-y="-8"
     inkscape:window-maximized="1"
     inkscape:current-layer="svg1" />
  <!--! Font Awesome Free 6.7.2 by @fontawesome - https://fontawesome.com License - https://fontawesome.com/license/free (Icons: CC BY 4.0, Fonts: SIL OFL 1.1, Code: MIT License) Copyright 2024 Fonticons, Inc. -->
  <path
     style="fill:#0055d4"
     d="m 16,312 c 0,-13.3 10.7,-24 24,-24 h 7.6 0.7 119.7 c 9.7,0 18.5,5.8 22.2,14.8 3.7,9 1.7,19.3 -5.2,26.2 l -41.1,41.1 c 62.6,61.5 163.1,61.2 225.3,-1 17.5,-17.5 30.1,-38 37.8,-59.8 5.9,-16.7 24.2,-25.4 40.8,-19.5 16.6,5.9 25.4,24.2 19.5,40.8 -10.8,30.6 -28.4,59.3 -52.9,83.8 -87.2,87.2 -228.3,87.5 -315.8,1 L 57,457 c -6.9,6.9 -17.2,8.9 -26.2,5.2 C 21.8,458.5 16,449.7 16,440 v -119.6 -0.7 -7.6 z"
     id="path2" />
  <path
     style="fill:#5599ff"
     d="m 142.9,142.9 c -17.5,17.5 -30.1,38 -37.8,59.8 -5.9,16.7 -24.2,25.4 -40.8,19.5 C 47.7,216.3 38.9,198 44.8,181.4 55.6,150.7 73.2,122 97.6,97.6 184.8,10.4 325.9,10.1 413.4,96.6 L 455,55 c 6.9,-6.9 17.2,-8.9 26.2,-5.2 9,3.7 14.8,12.5 14.8,22.2 v 128 c 0,13.3 -10.7,24 -24,24 h -8.4 c 0,0 0,0 0,0 H 344 c -9.7,0 -18.5,-5.8 -22.2,-14.8 -3.7,-9 -1.7,-19.3 5.2,-26.2 l 41.1,-41.1 C 305.5,80.4 205,80.7 142.8,142.9 Z"
     id="path1" />
</svg>
